# AST/ASF file generated using VICON BodyLanguage
# -----------------------------------------------
:version 1.10
:name VICON
:units
  mass 1.0
  length 0.45
  angle deg
:documentation
   .ast/.asf automatically generated from VICON data using
   VICON BodyBuilder and BodyLanguage model FoxedUp or BRILLIANT.MOD
:root
   order TX TY TZ RX RY RZ
   axis XYZ
   position 0 0 0  
   orientation 0 0 0 
:bonedata
  begin
     id 1 
     name lhipjoint
     direction 0.716248 -0.617586 0.324924 
     length 2.63557 
     axis 0 0 0  XYZ
  end
  begin
     id 2 
     name lfemur
     direction 0.34202 -0.939693 0  
     length 7.01235  
     axis 0 0 20  XYZ
    dof rx ry rz
    limits (-160.0 20.0)
           (-70.0 70.0)
           (-60.0 70.0)
  end
  begin
     id 3 
     name ltibia
     direction 0.34202 -0.939693 0   
     length 8.14348   
     axis 0 0 20   XYZ
    dof rx
    limits (-10.0 170.0)
  end
  begin
     id 4 
     name lfoot
     direction 0.0982064 -0.26982 0.95789   
     length 1.99077   
     axis -90 7.62852e-016 20   XYZ
    dof rx rz
    limits (-45.0 90.0)
           (-70.0 20.0)
  end
  begin
     id 5 
     name ltoes
     direction 1.53511e-011 -4.21891e-011 1   
     length 0.99735   
     axis -90 7.62852e-016 20   XYZ
    dof rx
    limits (-90.0 20.0)
  end
  begin
     id 6 
     name rhipjoint
     direction -0.687828 -0.642391 0.337975   
     length 2.5338  
     axis 0 0 0  XYZ 
  end
  begin
     id 7 
     name rfemur
     direction -0.34202 -0.939693 0   
     length 6.90199   
     axis 0 0 -20   XYZ
    dof rx ry rz
    limits (-160.0 20.0)
           (-70.0 70.0)
           (-70.0 60.0)
  end
  begin
     id 8 
     name rtibia
     direction -0.34202 -0.939693 0   
     length 8.07725   
     axis 0 0 -20   XYZ
    dof rx
    limits (-10.0 170.0)
 end
 begin
     id 9 
     name rfoot
     direction -0.0912384 -0.250675 0.963762   
     length 2.11621  
     axis -90 -7.62852e-016 -20   XYZ
    dof rx rz
    limits (-45.0 90.0)
           (-20.0 70.0)
  end
  begin
     id 10 
     name rtoes
     direction -1.5359e-011 -4.21894e-011 1   
     length 1.06031   
     axis -90 -7.62852e-016 -20   XYZ
    dof rx
    limits (-90.0 20.0)
  end
  begin
     id 11 
     name lowerback
     direction -0.0403572 0.987953 -0.149396   
     length 2.05637   
     axis 0 0 0   XYZ
    dof rx ry rz
    limits (-20.0 45.0)
           (-30.0 30.0)
           (-30.0 30.0)
  end
  begin
     id 12 
     name upperback
     direction -0.00512151 0.997598 0.0690792   
     length 2.01086   
     axis 0 0 0   XYZ
    dof rx ry rz
    limits (-20.0 45.0)
           (-30.0 30.0)
           (-30.0 30.0)
  end
  begin
     id 13 
     name thorax
     direction 0.0136133 0.989392 0.14463   
     length 2.09035   
     axis 0 0 0   XYZ
    dof rx ry rz
    limits (-20.0 45.0)
           (-30.0 30.0)
           (-30.0 30.0)
  end
  begin
     id 14 
     name lowerneck
     direction 0.0250714 0.992811 0.11704   
     length 1.70806   
     axis 0 0 0   XYZ
    dof rx ry rz
    limits (-20.0 45.0)
           (-30.0 30.0)
           (-30.0 30.0)
  end
  begin
     id 15 
     name upperneck
     direction -0.0519205 0.998394 -0.0226787   
     length 1.6689   
     axis 0 0 0   XYZ
    dof rx ry rz
    limits (-20.0 45.0)
           (-30.0 30.0)
           (-30.0 30.0)
  end
  begin
     id 16
     name head
     direction -0.0201693 0.999547 -0.0223192  
     length 1.83412  
     axis 0 0 0   XYZ
    dof rx ry rz
    limits (-20.0 45.0)
           (-30.0 30.0)
           (-30.0 30.0)
  end
  begin
     id 17 
     name lclavicle
     direction 0.89585 0.444077 -0.0157448  
     length 3.39587  
     axis 0 0 0   XYZ
    dof ry rz
    limits (-20.0 10.0)
           (0.0 20.0)
  end
  begin
     id 18 
     name lhumerus
     direction 1 -4.48956e-011 1.99132e-028   
     length 5.79199   
     axis 180 -30 -90   XYZ
    dof rx ry rz
    limits (-60.0 90.0)
           (-90.0 90.0)
           (-90.0 90.0)
  end
  begin
     id 19
     name lradius
     direction 1 -4.48974e-011 8.72912e-028   
     length 3.49908   
     axis 180 -30 -90   XYZ
    dof rx
    limits (-10.0 170.0)
  end
  begin
     id 20
     name lwrist
     direction 1 -4.48994e-011 4.76442e-027   
     length 1.74954   
     axis -3.27502e-015 90 90   XYZ
    dof ry
    limits (-180.0 0.0)
 end
  begin
     id 21 
     name lhand
     direction 1 -4.48945e-011 9.531e-027   
     length 0.593861   
     axis -6.08098e-015 90 90   XYZ
    dof rx rz
    limits (-90.0 90.0)
           (-45.0 45.0)
  end
  begin
     id 22 
     name lfingers
     direction 1 -4.48945e-011 1.9062e-026   
     length 0.478786   
     axis -1.21619e-014 90 90   XYZ
    dof rx
    limits (0.0 90.0)
  end
  begin
     id 23
     name lthumb
     direction 0.707107 -6.34904e-011 0.707107   
     length 0.687444   
     axis -90 45 -9.86923e-015   XYZ
    dof rx rz
    limits (-45.0 45.0)
           (-45.0 45.0)
  end
  begin
     id 24 
     name rclavicle
     direction -0.940466 0.338394 0.0318182   
     length 3.51226  
     axis 0 0 0   XYZ 
    dof ry rz
    limits (-10.0 20.0)
           (-20.0 0.0)
  end
  begin
     id 25 
     name rhumerus
     direction -1 -4.48976e-011 2.0905e-027  
     length 5.73799   
     axis 180 30 90   XYZ
    dof rx ry rz
    limits (-90.0 60.0)
           (-90.0 90.0)
           (-90.0 90.0)
  end
  begin
     id 26 
     name rradius
     direction -1 -4.48968e-011 -9.39692e-029   
     length 3.57916   
     axis 180 30 90   XYZ
    dof rx
    limits (-10.0 170.0)
  end
  begin
     id 27 
     name rwrist
     direction -1 -4.48959e-011 4.7652e-027   
     length 1.78958   
     axis -3.27502e-015 -90 -90   XYZ
    dof ry
    limits (-180.0 0.0)
  end
  begin
     id 28
     name rhand
     direction -1 -4.49042e-011 9.5267e-027   
     length 0.615577   
     axis -6.08098e-015 -90 -90   XYZ
    dof rx rz
    limits (-90.0 90.0)
           (-45.0 45.0)
  end
  begin
     id 29
     name rfingers
     direction -1 -4.48935e-011 1.90629e-026   
     length 0.496294   
     axis -1.21619e-014 -90 -90   XYZ
    dof rx
    limits (0.0 90.0)
  end
  begin
     id 30
     name rthumb
     direction -0.707107 -6.34977e-011 0.707107   
     length 0.712582   
     axis -90 -45 9.86923e-015   XYZ
    dof rx rz
    limits (-45.0 45.0)
           (-45.0 45.0)
  end
:hierarchy
  begin
    root lhipjoint rhipjoint lowerback
    lhipjoint lfemur
    lfemur ltibia
    ltibia lfoot
    lfoot ltoes
    rhipjoint rfemur
    rfemur rtibia
    rtibia rfoot
    rfoot rtoes
    lowerback upperback
    upperback thorax
    thorax lowerneck lclavicle rclavicle
    lowerneck upperneck
    upperneck head
    lclavicle lhumerus
    lhumerus lradius
    lradius lwrist
    lwrist lhand lthumb
    lhand lfingers
    rclavicle rhumerus
    rhumerus rradius
    rradius rwrist
    rwrist rhand rthumb
    rhand rfingers
  end

#!OML:ASF H:\Terrain\Patient Classification 1\PaulMetrics\March17Take5\PaulMetrics.ASF
:FULLY-SPECIFIED
:DEGREES
1412
root 16.713 17.8642 19.2807 -174.411 169.678 187.425
lowerback 3.0425 -0.276422 -8.30759
upperback -3.16723 -0.845689 -0.764201
thorax -4.92081 -0.134142 3.9201
lowerneck -4.16853 -3.30819 1.93579
upperneck 13.5814 -4.96751 2.45131
head 4.77796 -2.18917 0.173983
rclavicle -5.28643e-015 -1.15295e-014
rhumerus -46.142 11.879 -89.9351
rradius 35.5995
rwrist -5.32711
rhand -17.0367 -32.4514
rfingers 7.12502
rthumb 9.19993 -62.2308
lclavicle -5.28643e-015 -1.15295e-014
lhumerus -44.6273 -9.68613 75.9829
lradius 41.4021
lwrist 17.8307
lhand -11.596 -19.4817
lfingers 7.12502
lthumb 14.4463 9.99551
rfemur -25.0452 -5.15362 16.7985
rtibia 70.5628
rfoot -7.59916 -1.35088
rtoes 0.0651365
lfemur -22.7008 -0.870993 -27.6692
ltibia 32.7304
lfoot -14.4391 1.38548
ltoes -13.0645
1413
root 16.7555 17.877 19.3964 -174.311 170.378 188.24
lowerback 2.92942 -0.297706 -9.33163
upperback -3.31095 -0.932333 -0.941883
thorax -4.99754 -0.135468 4.31067
lowerneck -3.81122 -3.38631 1.65822
upperneck 13.5519 -5.08358 2.79678
head 4.72492 -2.2442 0.325889
rclavicle 3.21348e-014 7.95139e-015
rhumerus -46.7169 11.8024 -89.8778
rradius 35.7918
rwrist -5.21733
rhand -15.9903 -32.9908
rfingers 7.12502
rthumb 10.2095 -62.723
lclavicle 3.21348e-014 7.95139e-015
lhumerus -44.9591 -9.94196 75.8571
lradius 41.8576
lwrist 17.9155
lhand -11.3194 -19.7857
lfingers 7.12502
lthumb 14.7128 9.67226
rfemur -26.0185 -5.58133 16.1986
rtibia 70.3365
rfoot -8.34383 -1.54199
rtoes -4.6611
lfemur -22.1355 -0.562339 -28.5902
ltibia 32.6518
lfoot -14.9545 1.48045
ltoes -12.6412
1414
root 16.7739 17.8806 19.4459 -174.169 171.056 187.607
lowerback 3.39709 -0.260766 -9.08697
upperback -3.61335 -0.92862 -0.678632
thorax -5.5854 -0.101676 4.45848
lowerneck -3.756 -3.48108 1.52093
upperneck 13.5981 -5.20875 2.84728
head 4.73533 -2.30969 0.35766
rclavicle -9.97029e-015 -4.77083e-015
rhumerus -47.0925 12.119 -89.9429
rradius 35.9928
rwrist -5.81335
rhand -14.9413 -33.7808
rfingers 7.12502
rthumb 11.2213 -63.4607
lclavicle -9.97029e-015 -4.77083e-015
lhumerus -45.0036 -9.97234 75.6556
lradius 42.3819
lwrist 17.8909
lhand -11.2311 -19.9648
lfingers 7.12502
lthumb 14.7979 9.48692
rfemur -27.804 -5.4917 17.5643
rtibia 70.093
rfoot -8.40122 -2.51806
rtoes -8.288
lfemur -22.3695 -0.363609 -27.8491
ltibia 32.6942
lfoot -14.8899 1.86122
ltoes -11.9765
1415
root 16.7683 17.8504 19.4289 -173.854 172.006 185.812
lowerback 4.09889 -0.157323 -7.99896
upperback -3.90181 -0.773596 -0.0371423
thorax -6.31198 -0.0169656 4.52403
lowerneck -4.30015 -3.5264 1.65057
upperneck 13.7286 -5.27516 2.62287
head 4.85848 -2.34141 0.251885
rclavicle 1.00697e-014 -1.47101e-014
rhumerus -47.0311 12.8315 -90.1336
rradius 35.9594
rwrist -6.10588
rhand -15.0899 -33.4055
rfingers 7.12502
rthumb 11.078 -63.0932
lclavicle 1.00697e-014 -1.47101e-014
lhumerus -44.5596 -10.1136 75.5208
lradius 42.74
lwrist 18.1561
lhand -11.3044 -19.4743
lfingers 7.12502
lthumb 14.7273 9.98251
rfemur -30.4476 -4.42852 20.3914
rtibia 70.0158
rfoot -8.23972 -3.92064
rtoes -7.02532
lfemur -23.637 -0.00445016 -25.787
ltibia 33.1309
lfoot -14.6661 2.53697
ltoes -11.5922
1416
root 16.8691 17.8781 19.6082 -174.007 172.134 188.169
lowerback 2.81296 -0.494953 -9.63202
upperback -3.23435 -1.18693 -0.778143
thorax -4.80776 -0.259221 4.66539
lowerneck -4.58882 -3.51512 1.84621
upperneck 13.599 -5.25472 2.40686
head 4.8564 -2.33534 0.150507
rclavicle -3.27684e-015 3.29983e-014
rhumerus -46.9881 13.2023 -90.1675
rradius 36.1552
rwrist -6.04223
rhand -15.2001 -33.4495
rfingers 7.12502
rthumb 10.9718 -63.1428
lclavicle -3.27684e-015 3.29983e-014
lhumerus -44.1568 -10.3348 75.3999
lradius 43.0527
lwrist 18.6735
lhand -11.6783 -19.3592
lfingers 7.12502
lthumb 14.367 10.1236
rfemur -29.863 -6.38147 17.3415
rtibia 69.5436
rfoot -9.81445 -2.52241
rtoes -4.82969
lfemur -21.7076 0.107728 -28.7576
ltibia 32.7578
lfoot -15.849 2.39295
ltoes -13.0587
1417
root 16.8981 17.8392 19.5577 -173.498 172.378 188.513
lowerback 4.42263 -0.609164 -9.93516
upperback -3.74951 -1.58727 -0.824863
thorax -6.22162 -0.359535 4.85296
lowerneck -4.73857 -3.47902 2.14145
upperneck 13.5786 -5.18262 1.98184
head 4.85602 -2.31113 -0.0264522
rclavicle -2.325e-014 2.38542e-015
rhumerus -47.0267 12.9636 -89.8999
rradius 36.3982
rwrist -5.74593
rhand -14.9699 -33.7989
rfingers 7.12502
rthumb 11.1938 -63.4803
lclavicle -2.325e-014 2.38542e-015
lhumerus -43.9765 -10.3081 75.1667
lradius 43.3783
lwrist 18.9558
lhand -12.0394 -20.214
lfingers 7.12502
lthumb 14.0191 9.29329
rfemur -32.2983 -6.71881 17.4681
rtibia 69.4116
rfoot -9.70105 -2.99927
rtoes 0.267991
lfemur -22.4221 -0.0866763 -29.1851
ltibia 32.6847
lfoot -15.5484 2.74218
ltoes -14.2851
1418
root 16.9912 17.8612 19.7422 -173.739 172.597 189.613
lowerback 3.42776 -0.813916 -10.191
upperback -3.50123 -1.76203 -1.33161
thorax -5.36551 -0.498027 4.44715
lowerneck -4.80013 -3.63076 2.32496
upperneck 13.8608 -5.36759 1.60083
head 4.93758 -2.41058 -0.187874
rclavicle 2.25341e-014 9.14409e-015
rhumerus -47.3316 12.2414 -89.5161
rradius 36.3537
rwrist -5.28351
rhand -14.5557 -33.1538
rfingers 7.12502
rthumb 11.5932 -62.8132
lclavicle 2.25341e-014 9.14409e-015
lhumerus -44.1367 -10.4633 74.993
lradius 43.7504
lwrist 18.9243
lhand -11.9498 -20.9962
lfingers 7.12502
lthumb 14.1054 8.50506
rfemur -31.7447 -8.5682 15.8732
rtibia 68.415
rfoot -10.7842 -1.85979
rtoes 3.86984
lfemur -20.5208 0.167394 -30.8051
ltibia 31.9272
lfoot -16.1295 2.68983
ltoes -14.9615
1419
root 17.008 17.8574 19.8305 -173.821 173.256 189.173
lowerback 3.45442 -0.83149 -10.0493
upperback -3.5575 -1.77891 -1.20631
thorax -5.43667 -0.504151 4.50295
lowerneck -4.37349 -3.70876 1.75215
upperneck 13.2641 -5.50603 2.50118
head 4.72321 -2.46892 0.189043
rclavicle 1.71669e-014 -2.74323e-014
rhumerus -47.4885 12.151 -89.4838
rradius 36.3893
rwrist -5.34931
rhand -14.0352 -32.7837
rfingers 7.12502
rthumb 12.0952 -62.4141
lclavicle 1.71669e-014 -2.74323e-014
lhumerus -44.203 -10.4743 74.6883
lradius 44.2058
lwrist 18.8604
lhand -11.6287 -20.9803
lfingers 7.12502
lthumb 14.4148 8.49914
rfemur -32.6902 -8.22242 16.9132
rtibia 67.4754
rfoot -11.7124 -2.59878
rtoes 3.10124
lfemur -20.6482 0.466119 -30.311
ltibia 32.6972
lfoot -16.83 2.98396
ltoes -15.5329
1420
root 17.0191 17.8502 19.9514 -174.25 174.519 188.657
lowerback 3.15178 -0.728384 -10.1538
upperback -3.30786 -1.58122 -0.954953
thorax -5.01845 -0.426781 4.80323
lowerneck -4.86514 -3.54678 2.48269
upperneck 13.6433 -5.25723 1.5239
head 4.87576 -2.35871 -0.229625
rclavicle 2.86374e-015 -4.37326e-015
rhumerus -47.5958 12.7575 -89.7668
rradius 36.6537
rwrist -6.03444
rhand -14.2292 -33.1985
rfingers 7.12502
rthumb 11.9081 -62.8398
lclavicle 2.86374e-015 -4.37326e-015
lhumerus -44.0864 -10.6863 74.541
lradius 44.4859
lwrist 19.3559
lhand -11.7141 -20.8547
lfingers 7.12502
lthumb 14.3325 8.63061
rfemur -33.0898 -7.05876 17.9953
rtibia 66.2965
rfoot -12.4006 -3.50546
rtoes -0.297912
lfemur -19.9854 1.14609 -29.6936
ltibia 32.7165
lfoot -17.5457 3.47947
ltoes -14.8365
1421
root 16.9782 17.8006 19.943 -174.398 176.582 186.231
lowerback 4.64734 -0.117655 -9.03903
upperback -3.84825 -0.851802 -0.0391809
thorax -6.56292 0.00115939 5.12214
lowerneck -4.7688 -3.58217 2.2892
upperneck 13.7857 -5.28529 1.49647
head 4.90709 -2.3824 -0.208129
rclavicle 1.34739e-014 -2.26615e-014
rhumerus -48.0844 12.8614 -89.7632
rradius 36.8795
rwrist -6.51445
rhand -14.4638 -33.7553
rfingers 7.12502
rthumb 11.6818 -63.4096
lclavicle 1.34739e-014 -2.26615e-014
lhumerus -44.2413 -11.4888 74.8177
lradius 44.6779
lwrist 20.2059
lhand -11.9806 -20.6473
lfingers 7.12502
lthumb 14.0757 8.85598
rfemur -34.9457 -3.71488 21.5129
rtibia 65.1028
rfoot -11.3916 -5.64528
rtoes -5.43135
lfemur -21.1371 1.7551 -26.8495
ltibia 33.6121
lfoot -17.8937 4.79189
ltoes -13.566
1422
root 17.0822 17.8319 20.0483 -173.816 175.457 188.513
lowerback 4.3661 -0.774085 -9.88916
upperback -4.12741 -1.82725 -0.867332
thorax -6.56084 -0.452141 4.80608
lowerneck -4.33357 -3.68283 1.78877
upperneck 13.4759 -5.43386 2.10821
head 4.76858 -2.45331 0.0650731
rclavicle 3.00041e-015 -9.93923e-015
rhumerus -48.6961 12.9805 -89.8287
rradius 37.0609
rwrist -6.90206
rhand -14.413 -33.889
rfingers 7.12502
rthumb 11.7308 -63.5406
lclavicle 3.00041e-015 -9.93923e-015
lhumerus -44.3964 -12.243 75.0086
lradius 44.6977
lwrist 20.9535
lhand -12.4262 -20.5661
lfingers 7.12502
lthumb 13.6463 8.96654
rfemur -35.3931 -7.01016 18.7885
rtibia 63.9834
rfoot -11.9221 -4.36021
rtoes -10.7182
lfemur -20.5285 1.069 -29.7561
ltibia 33.5341
lfoot -18.5363 4.15022
ltoes -12.7667
1423
root 17.0915 17.8265 20.1273 -173.861 176.647 187.536
lowerback 4.47722 -0.616757 -9.42818
upperback -4.24875 -1.58133 -0.493726
thorax -6.7895 -0.328167 4.92709
lowerneck -3.9792 -3.61574 1.70054
upperneck 12.58 -5.32283 2.28512
head 4.93152 -2.41544 0.185262
rclavicle -1.24613e-014 1.35174e-014
rhumerus -49.0574 13.2474 -89.9567
rradius 37.3589
rwrist -7.36519
rhand -14.8929 -33.6386
rfingers 7.12502
rthumb 11.2681 -63.316
lclavicle -1.24613e-014 1.35174e-014
lhumerus -44.3238 -12.5661 74.9743
lradius 44.7116
lwrist 21.4843
lhand -13.0294 -20.9909
lfingers 7.12502
lthumb 13.0648 8.57988
rfemur -36.2857 -5.60601 20.2399
rtibia 62.7338
rfoot -12.3368 -5.44857
rtoes -7.70724
lfemur -20.4657 1.43556 -28.706
ltibia 33.5619
lfoot -19.1678 4.78914
ltoes -10.7806
1424
root 17.1387 17.8484 20.3118 -174.234 177.438 187.67
lowerback 3.2076 -0.731987 -9.50237
upperback -3.73961 -1.56352 -0.487948
thorax -5.5097 -0.395514 4.93707
lowerneck -4.14317 -3.52505 1.81748
upperneck 12.4744 -5.17952 2.0177
head 4.91196 -2.35478 0.0791005
rclavicle -9.28076e-015 1.70955e-014
rhumerus -49.0265 13.5101 -89.9204
rradius 37.6185
rwrist -7.73512
rhand -15.5886 -33.1216
rfingers 7.12502
rthumb 10.597 -62.8344
lclavicle -9.28076e-015 1.70955e-014
lhumerus -44.1723 -12.1037 74.6572
lradius 45.1225
lwrist 21.3203
lhand -13.0028 -21.2001
lfingers 7.12502
lthumb 13.0905 8.36909
rfemur -35.7546 -5.69167 20.0199
rtibia 61.2004
rfoot -13.7193 -4.9214
rtoes 0.223932
lfemur -18.9314 1.9036 -29.0491
ltibia 33.0291
lfoot -19.9613 5.0969
ltoes -11.2584
1425
root 17.1837 17.8044 20.2949 -173.936 176.953 189.957
lowerback 4.72258 -1.03985 -11.3363
upperback -4.023 -2.34819 -1.12412
thorax -6.55401 -0.650806 5.39537
lowerneck -4.80125 -3.60382 1.84265
upperneck 13.3985 -5.29317 1.70309
head 4.81014 -2.40512 -0.0692478
rclavicle 3.14763e-014 3.1408e-014
rhumerus -48.9293 13.6413 -89.895
rradius 37.6961
rwrist -8.10785
rhand -16.0842 -32.7919
rfingers 7.12502
rthumb 10.1189 -62.5286
lclavicle 3.14763e-014 3.1408e-014
lhumerus -43.9124 -11.8865 74.383
lradius 45.466
lwrist 21.0308
lhand -12.9657 -21.3371
lfingers 7.12502
lthumb 13.1263 8.22976
rfemur -37.1427 -7.41623 17.6777
rtibia 60.2022
rfoot -13.9147 -4.49547
rtoes 0.415198
lfemur -18.8896 1.30269 -31.7252
ltibia 32.866
lfoot -20.0265 5.0799
ltoes -10.4765
1426
root 17.1761 17.8068 20.4103 -174.079 178.585 187.881
lowerback 4.14401 -0.627327 -9.89346
upperback -3.9498 -1.57387 -0.506315
thorax -6.27105 -0.33916 5.1624
lowerneck -4.05838 -3.66674 0.769216
upperneck 12.0915 -5.3842 2.98128
head 4.82299 -2.4619 0.583854
rclavicle 2.45251e-014 1.11319e-014
rhumerus -49.0008 13.2269 -89.711
rradius 37.6458
rwrist -8.29033
rhand -16.6204 -32.7576
rfingers 7.12502
rthumb 9.60156 -62.5188
lclavicle 2.45251e-014 1.11319e-014
lhumerus -43.7328 -12.1166 74.3305
lradius 45.7288
lwrist 21.0582
lhand -13.1997 -21.4148
lfingers 7.12502
lthumb 12.9007 8.16648
rfemur -37.3918 -5.02404 20.4454
rtibia 58.0396
rfoot -13.7172 -6.69593
rtoes -7.91677
lfemur -19.0089 1.83361 -29.4149
ltibia 33.3904
lfoot -21.5599 5.69568
ltoes -6.31614
